<?xml version="1.0" encoding="utf-8"?>
<!-- Generator: Adobe Illustrator 18.1.1, SVG Export Plug-In . SVG Version: 6.00 Build 0)  -->
<svg version="1.1" id="Слой_1" xmlns="http://www.w3.org/2000/svg" xmlns:xlink="http://www.w3.org/1999/xlink" x="0px" y="0px"
	 viewBox="0 0 300 300" enable-background="new 0 0 300 300" xml:space="preserve">
<polygon fill="#008586" points="18.1,62.4 46.5,133.9 86.4,157.6 96.6,211 115,236.8 150.9,182.1 150.9,172.4 150.9,88.5 
	122.3,129.3 90.6,91.5 "/>
<polygon fill="#00D0D2" points="150.9,165 150.9,88.5 126.7,157.6 "/>
<polygon fill="#00AFB1" points="150.9,88.5 122.3,129.3 126.7,157.6 "/>
<polygon fill="#00BEBF" points="122.3,129.3 18.1,62.4 90.6,91.5 "/>
<polygon fill="#00F6F8" points="126.7,157.6 122.3,129.3 18.1,62.4 "/>
<polygon fill="#00CDCF" points="18.1,62.4 126.7,157.6 101.7,178.5 "/>
<polygon fill="#009192" points="18.1,62.4 86.4,157.6 46.5,133.9 "/>
<polygon fill="#00AFB1" points="126.7,157.6 101.7,178.5 115,236.8 "/>
<polygon fill="#008586" points="96.6,211 115,236.8 101.7,178.5 86.4,157.6 "/>
<polygon fill="#006968" points="126.7,157.6 150.9,165 150.9,182.1 "/>
<polygon fill="#008586" points="126.7,157.6 150.9,182.1 115,236.8 "/>
<polygon fill="#00797A" points="86.4,157.6 101.7,178.5 96.6,211 "/>
<linearGradient id="SVGID_1_" gradientUnits="userSpaceOnUse" x1="126.7492" y1="178.4867" x2="150.945" y2="178.4867">
	<stop  offset="0" style="stop-color:#007475"/>
	<stop  offset="0.4781" style="stop-color:#007F80"/>
	<stop  offset="1" style="stop-color:#008485"/>
</linearGradient>
<polygon fill="url(#SVGID_1_)" points="139.6,199.4 126.7,157.6 150.9,182.1 "/>
<polygon fill="#008586" points="18.1,62.4 46.5,102.1 46.5,133.9 "/>
<polygon fill="#008586" points="283.8,62.4 255.4,133.9 215.5,157.6 205.3,211 186.9,236.8 150.9,182.1 150.9,172.4 150.9,88.5 
	179.6,129.3 211.2,91.5 "/>
<polygon fill="#00F6F8" points="150.9,165 150.9,88.5 175.1,157.6 "/>
<polygon fill="#00AFB1" points="150.9,88.5 179.6,129.3 175.1,157.6 "/>
<polygon fill="#00BEBF" points="179.6,129.3 283.8,62.4 211.2,91.5 "/>
<polygon fill="#00F6F8" points="175.1,157.6 179.6,129.3 283.8,62.4 "/>
<polygon fill="#00CDCF" points="283.8,62.4 175.1,157.6 200.2,178.5 "/>
<polygon fill="#009192" points="283.8,62.4 215.5,157.6 255.4,133.9 "/>
<polygon fill="#00AFB1" points="175.1,157.6 200.2,178.5 186.9,236.8 "/>
<polygon fill="#008586" points="205.3,211 186.9,236.8 200.2,178.5 215.5,157.6 "/>
<polygon fill="#008C8A" points="175.1,157.6 150.9,165 150.9,182.1 "/>
<polygon fill="#008586" points="175.1,157.6 150.9,182.1 186.9,236.8 "/>
<polygon fill="#00797A" points="215.5,157.6 200.2,178.5 205.3,211 "/>
<linearGradient id="SVGID_2_" gradientUnits="userSpaceOnUse" x1="129.5467" y1="178.4867" x2="153.7425" y2="178.4867" gradientTransform="matrix(-1 0 0 1 304.6875 0)">
	<stop  offset="0" style="stop-color:#007475"/>
	<stop  offset="0.4781" style="stop-color:#007F80"/>
	<stop  offset="1" style="stop-color:#008485"/>
</linearGradient>
<polygon fill="url(#SVGID_2_)" points="162.3,199.4 175.1,157.6 150.9,182.1 "/>
<polygon fill="#008586" points="283.8,62.4 255.4,102.1 255.4,133.9 "/>
</svg>
